<svg width="146" height="38" viewBox="0 0 146 38" fill="none" xmlns="http://www.w3.org/2000/svg">
<path d="M36.1501 30.45V4.3391H46.5038C48.2687 4.3391 49.7133 4.69571 50.8375 5.40892C51.9738 6.11005 52.8139 7.01063 53.3579 8.11068C53.914 9.21072 54.192 10.347 54.192 11.5196C54.192 12.9581 53.8475 14.179 53.1584 15.1824C52.4815 16.1857 51.5567 16.8627 50.3842 17.2132V16.3066C52.0282 16.6813 53.2733 17.461 54.1195 18.6457C54.9777 19.8304 55.4069 21.1782 55.4069 22.6893C55.4069 24.2366 55.1107 25.5905 54.5184 26.751C53.9261 27.9115 53.0436 28.8181 51.871 29.4709C50.7105 30.1236 49.272 30.45 47.5555 30.45H36.1501ZM40.5744 26.3339H47.0115C47.7731 26.3339 48.4561 26.1828 49.0605 25.8806C49.6649 25.5663 50.1363 25.1311 50.4748 24.5751C50.8254 24.0069 51.0007 23.336 51.0007 22.5623C51.0007 21.8612 50.8496 21.2326 50.5474 20.6766C50.2451 20.1205 49.8039 19.6793 49.2237 19.3529C48.6434 19.0144 47.9484 18.8452 47.1384 18.8452H40.5744V26.3339ZM40.5744 14.7653H46.4494C47.078 14.7653 47.6401 14.6444 48.1357 14.4027C48.6313 14.1609 49.0242 13.8043 49.3143 13.3329C49.6045 12.8614 49.7495 12.2812 49.7495 11.5921C49.7495 10.6855 49.4594 9.92998 48.8792 9.32556C48.2989 8.72114 47.489 8.41893 46.4494 8.41893H40.5744V14.7653ZM67.6775 30.994C65.7192 30.994 64.0087 30.5528 62.546 29.6703C61.0833 28.7879 59.947 27.573 59.1371 26.0257C58.3393 24.4663 57.9403 22.6772 57.9403 20.6584C57.9403 18.6034 58.3513 16.8022 59.1734 15.2549C59.9954 13.7076 61.1377 12.4988 62.6004 11.6284C64.0631 10.758 65.7555 10.3229 67.6775 10.3229C69.6479 10.3229 71.3645 10.7641 72.8272 11.6465C74.2899 12.529 75.4262 13.7499 76.2361 15.3093C77.046 16.8566 77.451 18.6397 77.451 20.6584C77.451 22.6893 77.04 24.4844 76.218 26.0438C75.4081 27.5911 74.2718 28.806 72.8091 29.6884C71.3464 30.5588 69.6359 30.994 67.6775 30.994ZM67.6775 26.896C69.4183 26.896 70.7117 26.3158 71.5579 25.1553C72.4041 23.9948 72.8272 22.4959 72.8272 20.6584C72.8272 18.7605 72.3981 17.2495 71.5398 16.1253C70.6815 14.989 69.3941 14.4208 67.6775 14.4208C66.505 14.4208 65.5379 14.6868 64.7763 15.2186C64.0268 15.7384 63.4708 16.4698 63.1081 17.4127C62.7455 18.3435 62.5642 19.4254 62.5642 20.6584C62.5642 22.5563 62.9933 24.0734 63.8516 25.2097C64.7219 26.3339 65.9973 26.896 67.6775 26.896ZM81.8088 30.45V3.79512H86.1787V30.45H81.8088ZM99.4617 30.994C97.6605 30.994 96.089 30.5407 94.7472 29.634C93.4054 28.7274 92.3658 27.4944 91.6284 25.935C90.891 24.3756 90.5223 22.6167 90.5223 20.6584C90.5223 18.6759 90.891 16.911 91.6284 15.3637C92.3779 13.8043 93.4356 12.5773 94.8016 11.6828C96.1676 10.7762 97.7753 10.3229 99.6249 10.3229C101.486 10.3229 103.046 10.7762 104.303 11.6828C105.572 12.5773 106.533 13.8043 107.186 15.3637C107.839 16.9231 108.165 18.688 108.165 20.6584C108.165 22.6047 107.839 24.3635 107.186 25.935C106.533 27.4944 105.56 28.7274 104.267 29.634C102.973 30.5407 101.372 30.994 99.4617 30.994ZM100.133 27.0774C101.305 27.0774 102.248 26.8114 102.961 26.2795C103.687 25.7355 104.212 24.98 104.539 24.0129C104.877 23.0459 105.047 21.9277 105.047 20.6584C105.047 19.3771 104.877 18.2589 104.539 17.3039C104.212 16.3368 103.699 15.5873 102.998 15.0555C102.296 14.5115 101.39 14.2395 100.278 14.2395C99.1051 14.2395 98.138 14.5296 97.3764 15.1099C96.6149 15.678 96.0528 16.4517 95.6901 17.4308C95.3275 18.3979 95.1461 19.4738 95.1461 20.6584C95.1461 21.8552 95.3214 22.9431 95.672 23.9223C96.0346 24.8894 96.5846 25.657 97.322 26.2251C98.0594 26.7933 98.9963 27.0774 100.133 27.0774ZM105.047 30.45V16.7055H104.503V4.3391H108.909V30.45H105.047ZM122.642 30.994C120.684 30.994 118.973 30.5528 117.51 29.6703C116.048 28.7879 114.911 27.573 114.101 26.0257C113.304 24.4663 112.905 22.6772 112.905 20.6584C112.905 18.6034 113.316 16.8022 114.138 15.2549C114.96 13.7076 116.102 12.4988 117.565 11.6284C119.027 10.758 120.72 10.3229 122.642 10.3229C124.612 10.3229 126.329 10.7641 127.792 11.6465C129.254 12.529 130.391 13.7499 131.2 15.3093C132.01 16.8566 132.415 18.6397 132.415 20.6584C132.415 22.6893 132.004 24.4844 131.182 26.0438C130.372 27.5911 129.236 28.806 127.773 29.6884C126.311 30.5588 124.6 30.994 122.642 30.994ZM122.642 26.896C124.383 26.896 125.676 26.3158 126.522 25.1553C127.368 23.9948 127.792 22.4959 127.792 20.6584C127.792 18.7605 127.362 17.2495 126.504 16.1253C125.646 14.989 124.358 14.4208 122.642 14.4208C121.469 14.4208 120.502 14.6868 119.741 15.2186C118.991 15.7384 118.435 16.4698 118.072 17.4127C117.71 18.3435 117.529 19.4254 117.529 20.6584C117.529 22.5563 117.958 24.0734 118.816 25.2097C119.686 26.3339 120.962 26.896 122.642 26.896Z" fill="white"/>
<path d="M0.382355 16.45H14.7C19.5833 16.45 23.5421 20.4088 23.5421 25.2921V25.2921C23.5421 30.1755 19.5833 34.1343 14.7 34.1343H0.382355V16.45Z" fill="white"/>
<path d="M0.382355 0.976379H9.86189C13.5244 0.976379 16.4935 3.94544 16.4935 7.60796V7.60796C16.4935 11.2705 13.5244 14.2395 9.86189 14.2395H0.382355V0.976379Z" fill="white"/>
</svg>
